<svg xmlns="http://www.w3.org/2000/svg" width="279" height="39" viewBox="0 0 279 39" fill="none">
  <path d="M25.9718 13.3C25.8418 13.3 25.7118 13.27 25.5918 13.2L16.7619 8.09002C16.4019 7.88002 16.2818 7.41999 16.4918 7.05999C16.7018 6.69999 17.1518 6.57997 17.5218 6.78997L25.9718 11.68L34.3718 6.82C34.7318 6.61 35.1918 6.74002 35.4018 7.09002C35.6118 7.45002 35.4818 7.90999 35.1318 8.11999L26.3619 13.2C26.2319 13.26 26.1018 13.3 25.9718 13.3Z" fill="#1C1B1B"/>
  <path d="M25.972 22.36C25.562 22.36 25.222 22.02 25.222 21.61V12.54C25.222 12.13 25.562 11.79 25.972 11.79C26.382 11.79 26.722 12.13 26.722 12.54V21.61C26.722 22.02 26.382 22.36 25.972 22.36Z" fill="#1C1B1B"/>
  <path d="M25.9721 22.75C25.0921 22.75 24.2221 22.56 23.5321 22.18L18.1921 19.21C16.7421 18.41 15.6121 16.48 15.6121 14.82V9.16998C15.6121 7.50998 16.7421 5.59002 18.1921 4.78002L23.5321 1.82C24.9021 1.06 27.0421 1.06 28.4121 1.82L33.7521 4.78997C35.2021 5.58997 36.3321 7.51999 36.3321 9.17999V14.83C36.3321 16.49 35.2021 18.41 33.7521 19.22L28.4121 22.18C27.7221 22.56 26.8521 22.75 25.9721 22.75ZM25.9721 2.74999C25.3421 2.74999 24.7221 2.88 24.2621 3.13L18.9221 6.09997C17.9621 6.63997 17.1121 8.06999 17.1121 9.17999V14.83C17.1121 15.93 17.9621 17.37 18.9221 17.91L24.2621 20.88C25.1721 21.39 26.7721 21.39 27.6821 20.88L33.0221 17.91C33.9821 17.37 34.8321 15.94 34.8321 14.83V9.17999C34.8321 8.07998 33.9821 6.63997 33.0221 6.09997L27.6821 3.13C27.2221 2.88 26.6021 2.74999 25.9721 2.74999Z" fill="#1C1B1B"/>
</svg>